# manual conversion
# by me 
i 0
o cylinder
v 0 0 -250
v 100 0 -250
v 96 24 -250
v 87 48 -250
v 72 68 -250
v 53 84 -250
v 30 95 -250
v 6 99 -250
v -18 98 -250
v -42 90 -250
v -63 77 -250
v -80 58 -250
v -92 36 -250
v -99 12 -250
v -99 -12 -250
v -92 -36 -250
v -80 -58 -250
v -63 -77 -250
v -42 -90 -250
v -18 -98 -250
v 6 -99 -250
v 30 -95 -250
v 53 -84 -250
v 72 -68 -250
v 87 -48 -250
v 96 -24 -250
v 0 0 250
v 100 0 250
v 96 24 250
v 87 48 250
v 72 68 250
v 53 84 250
v 30 95 250
v 6 99 250
v -18 98 250
v -42 90 250
v -63 77 250
v -80 58 250
v -92 36 250
v -99 12 250
v -99 -12 250
v -92 -36 250
v -80 -58 250
v -63 -77 250
v -42 -90 250
v -18 -98 250
v 6 -99 250
v 30 -95 250
v 53 -84 250
v 72 -68 250
v 87 -48 250
v 96 -24 250

f 1 0 2
f 2 0 3
f 3 0 4
f 4 0 5
f 5 0 6
f 6 0 7
f 7 0 8
f 8 0 9
f 9 0 10
f 10 0 11
f 11 0 12
f 12 0 13
f 13 0 14
f 14 0 15
f 15 0 16
f 16 0 17
f 17 0 18
f 18 0 19
f 19 0 20
f 20 0 21
f 21 0 22
f 22 0 23
f 23 0 24
f 24 0 25
f 25 0 1
f 26 27 28
f 26 28 29
f 26 29 30
f 26 30 31
f 26 31 32
f 26 32 33
f 26 33 34
f 26 34 35
f 26 35 36
f 26 36 37
f 26 37 38
f 26 38 39
f 26 39 40
f 26 40 41
f 26 41 42
f 26 42 43
f 26 43 44
f 26 44 45
f 26 45 46
f 26 46 47
f 26 47 48
f 26 48 49
f 26 49 50
f 26 50 51
f 26 51 27
f 27 1 28
f 1 2 28
f 28 2 29
f 2 3 29
f 29 3 30
f 3 4 30
f 30 4 31
f 4 5 31
f 31 5 32
f 5 6 32
f 32 6 33
f 6 7 33
f 33 7 34
f 7 8 34
f 34 8 35
f 8 9 35
f 35 9 36
f 9 10 36
f 36 10 37
f 10 11 37
f 37 11 38
f 11 12 38
f 38 12 39
f 12 13 39
f 39 13 40
f 13 14 40
f 40 14 41
f 14 15 41
f 41 15 42
f 15 16 42
f 42 16 43
f 16 17 43
f 43 17 44
f 17 18 44
f 44 18 45
f 18 19 45
f 45 19 46
f 19 20 46
f 46 20 47
f 20 21 47
f 47 21 48
f 21 22 48
f 48 22 49
f 22 23 49
f 49 23 50
f 23 24 50
f 50 24 51
f 24 25 51
f 51 25 27
f 25 1 27