# manually be me
o dolphin
i 0
v -770 0 -119
v -768 -1 -121
v -767 -2 -121
v -768 0 -121
v -750 -16 -131
v -681 25 -96
v -821 -2 -137
v -766 -4 -121
v -768 0 -121
v -753 -8 -132
v -747 -21 -130
v -684 -39 -96
v -762 -9 -120
v -768 1 -121
v -754 -2 -133
v -740 -24 -137
v -680 25 -111
v -814 -2 -151
v -740 -31 -129
v -683 -38 -111
v -743 -28 -128
v -740 -36 -120
v -754 -20 -117
v -767 2 -121
v -754 2 -133
v -740 -15 -142
v -722 -43 -121
v -699 57 -111
v -740 -39 -110
v -766 4 -121
v -752 10 -132
v -753 8 -133
v -740 -5 -145
v -665 -38 -151
v -665 -54 -138
v -740 -32 -127
v -700 -55 -113
v -702 -56 -107
v -699 56 -113
v -700 58 -107
v -740 -39 -111
v -739 -39 -110
v -740 -39 -100
v -763 9 -120
v -750 16 -131
v -740 5 -145
v -665 -19 -158
v -665 -66 -122
v -702 -56 -107
v -704 -57 -98
v -722 43 -121
v -740 36 -120
v -665 74 -104
v -717 86 -115
v -740 39 -111
v -700 58 -106
v -740 -36 -90
v -665 -76 -84
v -762 10 -120
v -744 28 -128
v -740 15 -142
v -665 0 -161
v -547 -66 -140
v -547 -41 -154
v -547 -86 -119
v -701 -56 -112
v -665 -74 -104
v -723 -78 -116
v -726 -78 -101
v -665 66 -122
v -739 39 -110
v -702 58 -98
v -740 -31 -81
v -665 -74 -64
v -740 39 -110
v -740 24 -137
v -665 19 -158
v -547 -14 -161
v -547 -100 -95
v -849 -38 -175
v -740 33 -127
v -547 100 -95
v -844 33 -171
v -720 86 -100
v -740 -24 -74
v -665 -66 -45
v -547 -107 -39
v -740 39 -100
v -740 31 -129
v -665 38 -151
v -547 14 -161
v -394 -94 -108
v -394 -66 -129
v -394 -34 -143
v -394 -115 -81
v -547 -107 -67
v -759 -135 -126
v -859 -38 -163
v -764 -135 -111
v -547 86 -119
v -547 107 -67
v -854 33 -159
v -758 137 -126
v -665 76 -84
v -740 -15 -68
v -665 -54 -29
v -547 -100 -12
v -740 36 -90
v -665 54 -138
v -547 41 -154
v -394 0 -147
v -394 -128 -49
v -865 -81 -188
v -394 115 -81
v -394 128 -49
v -876 80 -179
v -866 80 -190
v -763 137 -111
v -740 -5 -66
v -665 -38 -17
v -547 -86 12
v -394 -128 19
v -394 -133 -14
v -740 31 -81
v -665 74 -64
v -547 66 -140
v -394 34 -143
v -215 -117 -59
v -215 -90 -87
v -215 -56 -106
v -215 -19 -116
v -215 -137 -26
v -806 -182 -129
v -799 -182 -143
v -875 -81 -177
v -394 94 -108
v -394 133 -14
v -547 107 -39
v -787 184 -137
v -740 5 -66
v -665 -19 -10
v -547 -66 32
v -394 -115 52
v -740 24 -74
v -665 66 -45
v -394 66 -129
v -215 19 -116
v -215 -147 11
v -875 -124 -199
v -215 117 -59
v -215 137 -26
v -215 147 11
v -885 123 -187
v -794 183 -123
v -874 123 -198
v -740 15 -68
v -665 0 -7
v -547 -41 46
v -394 -94 79
v -215 -137 87
v -215 -147 50
v -665 54 -29
v -547 100 -12
v -215 56 -106
v -44 -133 -27
v -44 -108 -59
v -44 -76 -84
v -44 -39 -99
v -44 0 -104
v -44 -148 9
v -838 -221 -147
v -886 -124 -188
v -829 -221 -160
v -215 90 -87
v -215 147 50
v -394 128 19
v -812 223 -150
v -665 19 -10
v -547 -14 54
v -394 -66 100
v -215 -117 121
v -665 38 -17
v -547 86 12
v -44 39 -99
v -44 -153 49
v -880 -185 -203
v -44 108 -59
v -44 133 -27
v -44 148 9
v -44 153 49
v -890 184 -193
v -820 223 -137
v -879 184 -204
v -547 14 54
v -394 -34 114
v -215 -90 148
v -44 -133 126
v -44 -148 88
v -547 66 32
v -394 115 52
v -44 76 -84
v 107 -137 -11
v 107 -117 -45
v 107 -90 -72
v 107 -56 -92
v 107 -19 -102
v 107 19 -102
v 80 -147 24
v -870 -264 -172
v -891 -185 -192
v -860 -264 -183
v -44 148 88
v -215 137 87
v -860 270 -185
v -547 41 46
v -394 0 118
v -215 -56 168
v -44 -108 157
v -394 94 79
v 107 56 -92
v 81 -143 9
v 107 -147 25
v 80 -147 22
v 107 -147 64
v -890 -242 -214
v 107 90 -72
v 107 117 -45
v 107 137 -11
v 80 147 24
v 107 147 64
v -904 253 -209
v -870 270 -174
v -892 253 -219
v -394 34 114
v -215 -19 178
v -44 -76 182
v 107 -117 135
v 107 -137 102
v -394 66 100
v -215 117 121
v 80 -147 21
v 107 -142 9
v 238 -115 -31
v 238 -94 -58
v 238 -66 -79
v 238 -34 -93
v 238 0 -97
v 238 34 -93
v 95 -147 24
v 75 -189 24
v -923 -307 -231
v -902 -242 -204
v -910 -306 -240
v 81 143 9
v 80 147 22
v 95 147 24
v 107 147 25
v 107 137 102
v -44 133 126
v -906 303 -239
v -215 19 178
v -232 -6 172
v -44 -39 197
v 107 -90 163
v -215 90 148
v 238 66 -79
v 75 -189 9
v 195 -134 9
v 238 -128 1
v 238 -133 35
v 107 -147 24
v 238 -128 70
v 238 94 -58
v 238 115 -31
v 81 144 10
v 107 142 9
v 238 133 35
v 238 128 70
v -919 303 -231
v -215 56 168
v -232 6 172
v -232 -4 172
v -215 -6 178
v -99 -6 194
v 107 -56 182
v 238 -94 129
v 238 -115 102
v -44 108 157
v 349 -100 -14
v 349 -86 -39
v 349 -66 -59
v 349 -41 -73
v 349 -14 -80
v 349 14 -80
v 349 41 -73
v 232 -132 24
v 114 -146 24
v 54 -232 9
v 238 128 1
v 107 147 24
v 114 146 24
v 238 115 102
v 107 117 135
v -44 39 197
v -215 6 178
v -209 -6 185
v -156 -6 186
v -59 -6 200
v 107 -19 192
v 238 -66 150
v -44 76 182
v 349 66 -59
v 238 -129 9
v 349 -107 12
v 349 -107 41
v 238 -131 24
v 54 -232 24
v 131 -293 9
v 349 -100 68
v 349 86 -39
v 349 100 -14
v 195 134 9
v 232 132 24
v 349 107 41
v 349 100 68
v -59 6 200
v -209 6 185
v -156 6 186
v -197 -6 209
v -44 -6 202
v 238 -34 164
v 4 -6 199
v 349 -66 113
v 349 -86 93
v 107 90 163
v 242 -128 9
v 435 -74 0
v 253 -126 9
v 435 -66 -17
v 435 -54 -33
v 435 -38 -45
v 435 -19 -53
v 435 0 -56
v 435 19 -53
v 435 38 -45
v 253 -128 24
v 242 -167 24
v 26 -261 9
v 131 -293 24
v 165 -275 9
v 72 -307 9
v 349 107 12
v 238 129 9
v 238 131 24
v 349 86 93
v 238 94 129
v 107 56 182
v -99 6 194
v -44 6 202
v -197 6 209
v 238 0 168
v 42 -6 197
v 349 -41 127
v 435 54 -33
v 242 -167 9
v 435 -76 20
v 435 -74 40
v 26 -261 24
v 165 -275 24
v 72 -307 24
v 198 -243 9
v 435 -66 59
v 435 66 -17
v 435 74 0
v 253 126 9
v 253 128 24
v 435 76 20
v 435 74 40
v 435 66 59
v 107 19 192
v 24 -6 225
v 349 -14 135
v 435 -38 87
v 435 -54 75
v 238 66 150
v 223 -214 9
v 488 -39 10
v 488 -36 0
v 253 -126 9
v 478 -36 -11
v 465 -30 -28
v 460 -24 -35
v 457 -13 -41
v 455 3 -43
v 459 22 -36
v 465 30 -28
v 223 -214 24
v 11 -286 9
v 23 -307 9
v 198 -243 24
v 23 -307 24
v 242 128 9
v 435 54 75
v 349 66 113
v 238 34 164
v 4 6 199
v 24 6 225
v -197 6 233
v -197 -6 233
v 349 14 135
v 42 4 197
v 435 -19 95
v 478 36 -11
v 488 -39 21
v 481 -36 -8
v 480 -36 -9
v 477 -36 -13
v 469 -33 -23
v 465 -30 -28
v 462 -26 -32
v 459 -22 -36
v 457 -13 -41
v 455 -6 -43
v 455 2 -43
v 455 6 -43
v 458 17 -39
v 460 24 -35
v 465 30 -28
v 469 33 -23
v 488 -36 31
v 11 -286 24
v 488 -31 40
v 488 36 0
v 488 39 10
v 253 128 23
v 488 39 21
v 488 36 31
v 488 31 40
v 42 6 197
v 0 -6 253
v 435 0 97
v 488 -15 52
v 488 -24 47
v 349 41 127
v 477 36 -13
v 480 36 -9
v 493 -26 18
v 491 -32 10
v 486 -36 -2
v 506 -33 -14
v 471 -35 -19
v 470 -34 -21
v 469 -30 -28
v 465 -30 -28
v 469 -23 -35
v 458 -17 -39
v 457 -16 -40
v 469 -14 -40
v 469 -4 -43
v 455 -3 -43
v 455 -1 -43
v 469 5 -43
v 457 13 -41
v 457 16 -40
v 469 23 -35
v 462 26 -32
v 465 30 -28
v 469 30 -28
v 470 34 -21
v 481 36 -8
v 488 24 47
v 435 38 87
v 0 6 253
v -204 6 265
v -204 -6 265
v 435 19 95
v 488 -5 55
v 471 35 -19
v 506 33 -14
v 493 -26 18
v 492 -29 14
v 491 -31 11
v 489 -34 6
v 506 -34 -5
v 488 -35 0
v 471 -35 -20
v 469 14 -40
v 457 13 -41
v 471 35 -20
v 496 -16 25
v 494 -23 20
v 497 -10 28
v 486 36 -2
v 488 35 1
v 492 30 14
v 494 23 20
v 495 19 24
v 496 15 26
v -27 -6 282
v 488 5 55
v 497 -1 29
v 497 -7 28
v 506 34 -5
v 507 -24 18
v 506 -29 11
v 506 -33 3
v 488 -35 1
v 488 -35 1
v 538 -27 -9
v 506 -29 -22
v 506 -24 -29
v 506 -8 -38
v 506 8 -38
v 506 17 -35
v 506 29 -22
v 496 -15 26
v 495 -19 24
v 495 -20 23
v 497 -10 28
v 488 35 0
v 488 35 1
v 489 34 6
v 491 31 11
v 493 26 18
v 493 26 18
v 495 20 23
v 496 16 25
v 497 10 28
v 488 15 52
v -27 6 282
v -221 6 288
v -58 -6 306
v 497 1 29
v 497 -1 29
v 497 -6 29
v 538 27 -9
v 538 -27 -2
v 538 -25 -16
v 506 -17 -35
v 506 0 -39
v 506 24 -29
v 507 -17 24
v 507 -8 27
v 506 33 3
v 491 32 10
v 506 29 11
v 507 24 18
v 507 17 24
v 507 8 27
v 497 10 28
v -58 6 306
v -221 -6 288
v 497 6 29
v 497 2 29
v 507 0 28
v 538 25 -16
v 538 27 -2
v 538 -22 11
v 538 -25 4
v 563 -19 -6
v 563 -19 -11
v 538 -22 -23
v 538 -17 -28
v 538 -10 -31
v 538 -3 -33
v 538 3 -33
v 538 10 -31
v 538 17 -28
v 538 22 -23
v 497 7 28
v -97 6 330
v -246 6 308
v -97 -6 330
v 563 19 -11
v 563 19 -6
v 538 -17 16
v 563 -19 -1
v 563 -17 -16
v 538 -10 19
v 538 25 4
v 538 22 11
v 538 17 16
v 538 10 19
v -135 6 346
v -246 -6 308
v -135 -6 346
v 538 -3 21
v 563 17 -16
v 563 19 -1
v 563 -13 7
v 563 -17 3
v 578 -10 -5
v 578 -10 -7
v 578 -9 -10
v 562 -13 -20
v 562 -9 -23
v 562 -5 -25
v 562 0 -26
v 562 5 -25
v 562 9 -23
v 562 14 -20
v 538 3 21
v -173 6 359
v -272 6 320
v 578 9 -10
v 578 10 -7
v 578 10 -5
v 563 -9 10
v 578 -9 -2
v 578 -8 -12
v 563 -5 12
v 563 17 3
v 563 14 7
v 563 9 10
v 563 5 12
v -173 -6 359
v -242 6 367
v -272 -6 320
v 563 0 13
v 578 8 -12
v 578 9 -2
v 578 -6 1
v 578 -8 0
v 583 0 -6
v 578 -6 -14
v 578 -3 -15
v 578 -1 -16
v 578 1 -16
v 578 3 -15
v 578 6 -14
v -242 -6 367
v -284 6 330
v 578 -3 3
v 578 -1 3
v 578 8 0
v 578 6 1
v 578 3 3
v 578 1 3
v -284 -6 359
v -284 6 359
v -284 -6 330
v -289 6 344
v -289 -6 344
v 23 307 24
v 26 261 24
v 11 286 24
v 72 307 24
v 26 261 9
v 11 286 9
v 54 232 24
v 23 307 9
v 54 232 9
v 131 293 24
v 72 307 9
v 75 189 9
v 75 189 24
v 131 293 9
v 165 275 24
v 165 275 9
v 198 243 24
v 198 243 9
v 223 214 24
v 223 214 9
v 242 167 24
v 242 167 9

f 1 2 0
f 3 1 0
f 1 4 2
f 2 1 5
f 2 1 6
f 7 0 2
f 8 3 0
f 3 9 1
f 1 3 5
f 1 3 6
f 9 4 1
f 2 10 4
f 11 2 5
f 7 2 6
f 10 2 7
f 2 11 7
f 12 0 7
f 13 8 0
f 8 14 3
f 3 8 5
f 3 8 6
f 14 9 3
f 9 15 4
f 9 4 16
f 4 9 17
f 18 10 4
f 10 4 17
f 10 19 4
f 5 16 11
f 7 12 6
f 7 10 20
f 7 11 12
f 21 7 12
f 22 0 12
f 23 13
f 13 24 8
f 8 13 5
f 8 13 6
f 24 14 8
f 14 25 9
f 9 14 16
f 9 14 17
f 25 15 9
f 18 4 15
f 4 19 16
f 10 18 20
f 17 10 20
f 26 19 10
f 16 19 11
f 27 5 16
f 12 22 6
f 7 21 20
f 26 10 20
f 11 22 12
f 12 22 21
f 22 28 0
f 29 23 0
f 23 30 13
f 13 23 5
f 13 23 6
f 31 24 13
f 24 32 14
f 14 24 16
f 14 24 17
f 32 25 14
f 25 33 15
f 15 34 18
f 35 20 18
f 35 17 20
f 19 26 36
f 19 37 11
f 38 27 16
f 39 5 27
f 6 22 40
f 35 21 20
f 35 26 20
f 11 41 22
f 22 40 21
f 28 22 40
f 28 42 0
f 43 29 0
f 29 44 23
f 23 29 5
f 23 29 6
f 44 30 23
f 30 31 13
f 31 45 24
f 24 31 16
f 24 31 17
f 45 32 24
f 32 46 25
f 15 33 34
f 25 46 33
f 18 34 47
f 18 26 35
f 26 17 35
f 48 19 36
f 26 36 21
f 47 36 26
f 36 17 26
f 37 49 11
f 48 37 19
f 50 38 16
f 27 38 51
f 52 38 27
f 27 53 38
f 27 39 52
f 54 39 27
f 27 39 53
f 5 55 39
f 22 41 40
f 6 41 40
f 35 26 21
f 49 41 11
f 21 41 40
f 40 41 28
f 42 56 0
f 28 57 42
f 58 43 0
f 43 59 29
f 5 29 43
f 29 43 6
f 59 44 29
f 60 30 44
f 17 30 44
f 50 30 44
f 30 60 31
f 31 16 30
f 30 31 17
f 60 45 31
f 45 61 32
f 32 61 46
f 33 62 34
f 46 63 33
f 34 64 47
f 18 47 26
f 48 36 65
f 21 36 65
f 36 47 66
f 17 36 67
f 66 49 37
f 37 49 41
f 49 68 37
f 48 37 41
f 66 37 48
f 37 68 48
f 50 38 69
f 51 38 50
f 38 17 50
f 50 16 30
f 54 27 51
f 52 38 69
f 53 17 38
f 39 55 52
f 70 54 39
f 39 55 53
f 71 55 39
f 5 71 55
f 6 49 41
f 41 49 28
f 21 48 41
f 56 72 0
f 42 73 56
f 42 57 73
f 49 57 28
f 74 58 0
f 59 43 58
f 6 43 58
f 70 43 58
f 70 5 43
f 59 75 44
f 59 17 44
f 59 50 44
f 75 60 44
f 60 76 45
f 45 76 61
f 61 77 46
f 34 62 64
f 33 63 62
f 46 77 63
f 47 64 78
f 65 36 66
f 36 65 67
f 48 65 66
f 21 65 48
f 65 48 67
f 47 78 66
f 79 17 67
f 49 66 57
f 6 68 49
f 48 68 67
f 50 80 69
f 51 50 80
f 50 17 80
f 54 51 58
f 52 81 69
f 82 17 53
f 55 71 52
f 70 71 39
f 74 70 54
f 70 6 54
f 54 70 58
f 55 53 83
f 55 83 71
f 70 71 5
f 72 84 0
f 56 85 72
f 56 73 85
f 57 86 73
f 87 74 0
f 54 58 74
f 51 59 58
f 54 6 58
f 88 75 59
f 80 17 59
f 80 50 59
f 75 89 60
f 60 89 76
f 76 90 61
f 61 90 77
f 62 91 64
f 63 92 62
f 77 93 63
f 64 94 78
f 66 78 95
f 17 79 6
f 67 96 79
f 66 95 57
f 6 97 68
f 67 68 98
f 80 69 88
f 80 59 51
f 69 81 99
f 52 100 81
f 82 17 101
f 53 102 82
f 71 103 52
f 103 71 70
f 83 70 71
f 74 103 70
f 6 70 83
f 53 102 83
f 84 104 0
f 72 105 84
f 72 85 105
f 73 106 85
f 73 86 106
f 57 95 86
f 107 87 0
f 87 103 74
f 80 88 59
f 88 108 75
f 75 108 89
f 89 109 76
f 76 109 90
f 90 110 77
f 64 91 94
f 62 92 91
f 63 93 92
f 77 110 93
f 78 94 111
f 78 111 95
f 17 6 101
f 79 97 6
f 96 67 98
f 112 79 96
f 98 68 97
f 88 69 108
f 81 113 99
f 69 99 108
f 100 114 81
f 103 100 52
f 82 101 115
f 82 116 102
f 101 6 83
f 102 117 83
f 104 118 0
f 84 119 104
f 84 105 119
f 85 120 105
f 85 106 120
f 86 121 106
f 95 122 86
f 123 107 0
f 107 124 87
f 87 124 103
f 108 125 89
f 89 125 109
f 109 126 90
f 90 126 110
f 91 127 94
f 92 128 91
f 93 129 92
f 110 130 93
f 94 131 111
f 95 111 122
f 79 112 97
f 96 98 132
f 96 133 112
f 97 134 98
f 99 113 135
f 81 114 113
f 108 99 125
f 100 136 114
f 103 137 100
f 116 82 115
f 115 101 117
f 138 102 116
f 83 117 101
f 102 138 117
f 118 139 0
f 104 140 118
f 104 119 140
f 105 141 119
f 105 120 141
f 106 142 120
f 106 121 142
f 86 122 121
f 143 123 0
f 123 144 107
f 107 144 124
f 124 137 103
f 125 145 109
f 109 145 126
f 126 146 110
f 94 127 131
f 91 128 127
f 92 129 128
f 93 130 129
f 110 146 130
f 111 131 147
f 111 147 122
f 112 134 97
f 133 96 132
f 132 98 134
f 148 112 133
f 113 149 135
f 99 135 125
f 114 150 113
f 136 151 114
f 137 136 100
f 116 115 152
f 117 153 115
f 116 154 138
f 138 153 117
f 139 155 0
f 118 156 139
f 118 140 156
f 119 157 140
f 119 141 157
f 120 158 141
f 120 142 158
f 121 159 142
f 122 160 121
f 155 143 0
f 143 161 123
f 123 161 144
f 144 162 124
f 124 162 137
f 125 135 145
f 145 163 126
f 126 163 146
f 127 164 131
f 128 165 127
f 129 166 128
f 130 167 129
f 146 168 130
f 131 169 147
f 122 147 160
f 112 148 134
f 133 132 170
f 134 171 132
f 133 172 148
f 135 149 173
f 113 150 149
f 114 151 150
f 136 174 151
f 137 175 136
f 154 116 152
f 152 115 153
f 176 138 154
f 138 176 153
f 139 177 155
f 139 156 177
f 140 178 156
f 140 157 178
f 141 179 157
f 141 158 179
f 142 180 158
f 142 159 180
f 121 160 159
f 155 181 143
f 143 181 161
f 161 182 144
f 144 182 162
f 162 175 137
f 135 173 145
f 145 173 163
f 163 183 146
f 131 164 169
f 127 165 164
f 128 166 165
f 129 167 166
f 130 168 167
f 146 183 168
f 147 169 184
f 147 184 160
f 148 171 134
f 172 133 170
f 170 132 171
f 185 148 172
f 149 186 173
f 150 187 149
f 151 188 150
f 174 189 151
f 175 174 136
f 154 152 190
f 153 191 152
f 154 192 176
f 176 191 153
f 155 177 181
f 156 193 177
f 156 178 193
f 157 194 178
f 157 179 194
f 158 195 179
f 158 180 195
f 159 196 180
f 160 197 159
f 181 198 161
f 161 198 182
f 182 199 162
f 162 199 175
f 173 200 163
f 163 200 183
f 164 201 169
f 165 202 164
f 166 203 165
f 167 204 166
f 168 205 167
f 183 206 168
f 169 207 184
f 160 184 197
f 148 185 171
f 172 170 208
f 171 209 170
f 172 210 185
f 173 186 200
f 149 187 186
f 150 188 187
f 151 189 188
f 174 211 189
f 175 212 174
f 192 154 190
f 190 152 191
f 213 176 192
f 176 213 191
f 177 214 181
f 177 193 214
f 178 215 193
f 178 194 215
f 179 216 194
f 179 195 216
f 180 217 195
f 180 196 217
f 159 197 196
f 181 214 198
f 198 218 182
f 182 218 199
f 199 212 175
f 200 219 183
f 201 220 169
f 164 202 201
f 165 203 202
f 166 204 203
f 167 205 204
f 168 206 205
f 183 219 206
f 207 221 184
f 207 169 222
f 184 223 197
f 185 209 171
f 210 172 208
f 208 170 209
f 224 185 210
f 186 225 200
f 187 226 186
f 188 227 187
f 189 228 188
f 211 229 189
f 212 211 174
f 192 190 230
f 191 231 190
f 192 232 213
f 213 231 191
f 193 233 214
f 193 215 233
f 194 234 215
f 194 216 234
f 195 235 216
f 195 217 235
f 196 236 217
f 197 237 196
f 214 238 198
f 198 238 218
f 218 239 199
f 199 239 212
f 200 225 219
f 220 240 169
f 220 201 241
f 202 242 201
f 203 243 202
f 204 244 203
f 205 245 204
f 206 246 205
f 219 247 206
f 184 221 223
f 207 248 221
f 207 222 249
f 169 240 222
f 197 223 237
f 185 224 209
f 210 208 250
f 209 251 208
f 210 252 224
f 186 226 225
f 187 227 226
f 253 227 188
f 228 254 188
f 228 189 255
f 189 229 256
f 211 257 229
f 212 258 211
f 232 192 230
f 230 190 231
f 213 232 259
f 213 259 231
f 214 233 238
f 215 260 233
f 234 261 215
f 216 262 234
f 216 235 262
f 217 263 235
f 217 236 263
f 196 237 236
f 238 264 218
f 218 264 239
f 239 258 212
f 225 265 219
f 220 266 240
f 266 220 241
f 201 267 241
f 201 242 268
f 202 243 242
f 203 244 243
f 204 245 244
f 205 246 245
f 206 247 246
f 219 265 247
f 221 269 223
f 248 270 221
f 207 249 248
f 222 266 249
f 240 266 222
f 223 271 237
f 224 251 209
f 252 210 250
f 250 208 251
f 224 252 251
f 226 272 225
f 227 273 226
f 274 253 188
f 227 253 275
f 254 274 188
f 189 256 255
f 229 276 256
f 257 277 229
f 258 257 211
f 232 230 278
f 230 231 278
f 259 232 278
f 259 278 231
f 233 279 238
f 233 260 279
f 280 260 215
f 261 281 215
f 261 234 282
f 234 262 283
f 235 284 262
f 235 263 284
f 236 285 263
f 237 286 236
f 238 279 264
f 264 287 239
f 239 287 258
f 225 272 265
f 267 266 241
f 201 268 267
f 242 288 268
f 243 289 242
f 244 290 243
f 245 291 244
f 246 292 245
f 247 293 246
f 265 294 247
f 223 269 271
f 295 269 221
f 248 249 270
f 270 296 221
f 249 266 297
f 237 271 286
f 252 250 251
f 226 273 272
f 227 298 273
f 275 298 227
f 255 256 299
f 256 276 300
f 229 277 276
f 257 301 277
f 258 302 257
f 260 303 279
f 281 280 215
f 260 280 304
f 305 281 261
f 282 305 261
f 234 306 282
f 306 234 283
f 262 307 283
f 262 284 308
f 263 309 284
f 263 285 309
f 236 286 285
f 279 310 264
f 264 310 287
f 287 302 258
f 272 311 265
f 266 267 312
f 267 268 312
f 268 288 313
f 242 289 288
f 243 290 289
f 244 291 290
f 245 292 291
f 246 293 292
f 247 294 293
f 265 311 294
f 269 314 271
f 296 295 221
f 269 295 315
f 249 296 270
f 316 249 297
f 266 317 297
f 271 318 286
f 273 319 272
f 298 320 273
f 275 321 298
f 256 300 299
f 276 322 300
f 277 323 276
f 301 324 277
f 302 301 257
f 279 303 310
f 325 303 260
f 280 281 326
f 327 260 304
f 326 304 280
f 326 281 305
f 282 306 305
f 305 306 283
f 283 307 328
f 307 262 329
f 284 330 308
f 262 308 331
f 284 309 330
f 285 332 309
f 286 333 285
f 310 334 287
f 287 334 302
f 272 319 311
f 335 266 312
f 268 335 312
f 288 336 313
f 337 268 313
f 289 338 288
f 290 339 289
f 291 340 290
f 292 341 291
f 293 342 292
f 294 343 293
f 311 344 294
f 271 314 318
f 269 313 314
f 249 295 296
f 345 269 315
f 295 346 315
f 316 297 347
f 348 249 316
f 317 266 349
f 350 297 317
f 286 318 333
f 273 320 319
f 298 351 320
f 321 352 298
f 322 276 353
f 276 323 351
f 277 324 323
f 301 354 324
f 302 355 301
f 303 356 310
f 357 325 260
f 303 325 358
f 327 357 260
f 327 304 326
f 359 326 305
f 305 283 328
f 307 329 328
f 262 331 329
f 308 330 360
f 308 361 331
f 309 362 330
f 309 332 362
f 285 333 332
f 310 356 334
f 334 355 302
f 319 363 311
f 364 266 335
f 335 268 337
f 313 336 365
f 288 338 336
f 345 337 313
f 289 339 338
f 290 340 339
f 291 341 340
f 292 342 341
f 293 343 342
f 294 344 343
f 311 363 344
f 314 366 318
f 313 365 314
f 345 313 269
f 249 346 295
f 346 345 315
f 367 316 347
f 297 350 347
f 249 348 368
f 316 369 348
f 348 317 349
f 370 349 266
f 369 350 317
f 318 371 333
f 320 372 319
f 351 373 320
f 374 351 298
f 374 298 352
f 276 375 353
f 323 376 351
f 375 276 351
f 324 377 323
f 354 378 324
f 355 354 301
f 303 379 356
f 325 357 359
f 358 379 303
f 358 325 359
f 327 326 357
f 357 326 359
f 328 359 305
f 328 329 380
f 329 331 380
f 330 381 360
f 308 360 379
f 380 331 361
f 361 308 379
f 330 362 381
f 332 382 362
f 333 383 332
f 356 384 334
f 334 384 355
f 319 372 363
f 364 385 266
f 364 335 337
f 336 386 365
f 338 387 336
f 388 337 345
f 339 389 338
f 340 390 339
f 341 391 340
f 342 392 341
f 343 393 342
f 344 394 343
f 363 395 344
f 318 366 371
f 314 365 366
f 396 346 249
f 388 345 346
f 367 347 397
f 369 316 367
f 350 398 347
f 368 348 349
f 368 399 249
f 348 369 317
f 370 266 385
f 368 349 370
f 369 400 350
f 333 371 383
f 320 373 372
f 351 376 373
f 374 375 351
f 401 374 352
f 323 377 376
f 324 378 377
f 354 402 378
f 355 403 354
f 379 404 356
f 358 405 379
f 358 359 406
f 407 359 328
f 380 408 328
f 360 381 409
f 379 360 404
f 380 361 410
f 410 361 379
f 362 411 381
f 362 382 411
f 332 383 382
f 356 404 384
f 384 403 355
f 372 412 363
f 396 385 364
f 337 388 364
f 365 386 413
f 336 387 386
f 414 387 338
f 389 415 338
f 389 339 416
f 390 417 339
f 390 340 418
f 391 419 340
f 341 420 391
f 392 421 341
f 342 422 392
f 393 423 342
f 343 424 393
f 394 425 343
f 344 426 394
f 395 427 344
f 395 363 428
f 366 429 371
f 365 413 366
f 346 396 364
f 249 399 396
f 388 346 364
f 430 367 397
f 397 347 398
f 400 369 367
f 400 398 350
f 399 368 370
f 399 370 385
f 371 431 383
f 373 432 372
f 376 433 373
f 434 375 374
f 377 435 376
f 378 436 377
f 402 437 378
f 403 402 354
f 405 438 379
f 405 358 406
f 407 406 359
f 408 407 328
f 408 380 439
f 381 440 409
f 360 409 404
f 380 410 438
f 438 410 379
f 381 411 440
f 382 441 411
f 383 442 382
f 404 443 384
f 384 443 403
f 412 444 363
f 412 372 445
f 396 399 385
f 386 446 413
f 387 447 386
f 415 414 338
f 414 448 387
f 389 449 415
f 416 449 389
f 339 450 416
f 417 451 339
f 390 452 417
f 418 452 390
f 340 453 418
f 419 453 340
f 391 454 419
f 391 420 454
f 420 341 455
f 421 456 341
f 421 392 457
f 422 458 392
f 342 459 422
f 423 460 342
f 393 461 423
f 393 424 461
f 343 462 424
f 425 463 343
f 394 464 425
f 394 426 464
f 426 344 465
f 427 466 344
f 427 395 467
f 395 428 467
f 428 363 468
f 371 429 431
f 366 413 429
f 430 397 398
f 367 430 400
f 400 430 398
f 383 431 442
f 432 469 372
f 373 433 432
f 376 435 433
f 377 436 435
f 378 437 436
f 402 470 437
f 403 471 402
f 438 405 406
f 406 407 472
f 473 407 408
f 380 406 439
f 439 474 408
f 409 440 475
f 404 409 443
f 380 438 406
f 411 476 440
f 411 441 476
f 382 442 441
f 443 471 403
f 444 477 363
f 444 412 478
f 412 445 478
f 372 469 445
f 413 446 479
f 386 480 446
f 386 447 481
f 387 482 447
f 414 415 483
f 387 448 484
f 448 414 483
f 415 449 483
f 416 450 449
f 485 450 339
f 451 485 339
f 417 452 451
f 418 453 452
f 453 419 452
f 419 454 452
f 420 455 454
f 341 456 455
f 421 457 456
f 392 458 457
f 422 459 458
f 459 342 460
f 423 461 460
f 424 486 461
f 462 486 424
f 462 343 487
f 463 425 486
f 343 463 487
f 425 464 486
f 426 465 464
f 344 466 465
f 427 467 466
f 468 467 428
f 363 488 468
f 429 489 431
f 413 490 429
f 442 431 491
f 432 492 469
f 433 493 432
f 435 494 433
f 436 495 435
f 437 496 436
f 437 470 497
f 471 470 402
f 406 472 439
f 473 472 407
f 474 473 408
f 474 439 498
f 440 499 475
f 409 475 443
f 440 476 499
f 476 441 500
f 442 501 441
f 443 475 471
f 444 478 477
f 477 488 363
f 445 502 478
f 469 502 445
f 490 413 479
f 479 446 503
f 480 504 446
f 480 386 481
f 481 447 504
f 482 505 447
f 387 506 482
f 387 484 507
f 448 483 484
f 449 508 483
f 450 509 449
f 485 509 450
f 452 485 451
f 454 510 452
f 455 457 454
f 456 457 455
f 458 511 457
f 459 460 458
f 460 461 458
f 486 512 461
f 487 486 462
f 487 463 486
f 464 513 486
f 465 467 464
f 466 467 465
f 468 514 467
f 468 488 514
f 431 489 515
f 429 516 489
f 429 490 517
f 518 442 491
f 431 515 491
f 469 492 502
f 492 432 519
f 432 493 520
f 433 521 493
f 433 494 522
f 435 523 494
f 435 495 524
f 495 436 525
f 436 496 525
f 437 526 496
f 526 437 497
f 470 527 497
f 471 528 470
f 439 472 498
f 472 473 529
f 530 473 474
f 498 531 474
f 475 499 528
f 476 532 499
f 533 476 500
f 441 534 500
f 441 501 534
f 442 518 501
f 475 528 471
f 477 478 488
f 502 535 478
f 479 503 490
f 446 504 503
f 481 504 480
f 447 505 504
f 482 506 505
f 506 387 507
f 507 484 505
f 484 483 505
f 483 508 536
f 449 537 508
f 509 537 449
f 452 509 485
f 452 510 509
f 454 538 510
f 457 538 454
f 457 511 538
f 458 539 511
f 461 539 458
f 461 512 539
f 486 513 512
f 464 540 513
f 467 540 464
f 467 514 540
f 488 478 514
f 489 541 515
f 489 516 541
f 516 429 517
f 490 503 517
f 518 491 542
f 515 541 491
f 492 519 502
f 432 520 519
f 493 543 520
f 493 521 543
f 433 544 521
f 544 433 522
f 522 494 545
f 523 546 494
f 523 435 524
f 524 495 546
f 495 525 546
f 496 547 525
f 496 526 547
f 526 497 547
f 527 548 497
f 470 549 527
f 528 549 470
f 472 529 498
f 550 529 473
f 473 530 550
f 551 530 474
f 551 474 531
f 498 529 531
f 528 499 552
f 499 532 553
f 476 533 532
f 533 500 554
f 534 542 500
f 501 542 534
f 501 518 542
f 478 535 555
f 502 556 535
f 504 557 503
f 505 558 504
f 506 507 505
f 483 536 505
f 508 559 536
f 537 560 508
f 509 561 537
f 510 561 509
f 538 562 510
f 511 563 538
f 539 564 511
f 512 565 539
f 513 566 512
f 540 567 513
f 514 568 540
f 478 555 514
f 516 517 541
f 517 503 541
f 491 541 542
f 519 543 502
f 520 543 519
f 521 545 543
f 544 545 521
f 522 545 544
f 494 546 545
f 524 546 523
f 525 547 546
f 497 548 547
f 549 548 527
f 528 569 549
f 529 550 531
f 570 550 530
f 571 530 551
f 531 572 551
f 569 528 552
f 499 553 552
f 532 554 553
f 532 533 554
f 500 542 554
f 535 573 555
f 556 574 535
f 543 556 502
f 503 557 575
f 504 558 557
f 505 536 558
f 536 559 576
f 508 560 559
f 537 577 560
f 561 577 537
f 510 562 561
f 538 563 562
f 511 564 563
f 539 565 564
f 512 566 565
f 513 567 566
f 540 568 567
f 514 555 568
f 503 575 541
f 541 578 542
f 545 579 543
f 546 580 545
f 547 581 546
f 548 582 547
f 549 569 548
f 531 550 572
f 570 530 583
f 550 570 572
f 571 583 530
f 584 571 551
f 551 572 585
f 569 552 548
f 553 554 552
f 542 586 554
f 555 573 587
f 535 574 573
f 556 588 574
f 543 579 556
f 557 589 575
f 558 590 557
f 536 576 558
f 559 591 576
f 560 592 559
f 577 593 560
f 561 594 577
f 562 594 561
f 563 595 562
f 564 596 563
f 565 597 564
f 566 598 565
f 567 599 566
f 568 600 567
f 555 587 568
f 541 575 578
f 542 578 586
f 545 580 579
f 546 581 580
f 547 582 581
f 548 601 582
f 570 583 585
f 572 570 585
f 583 571 602
f 603 571 584
f 585 584 551
f 552 554 548
f 554 586 601
f 573 604 587
f 574 605 573
f 588 606 574
f 579 588 556
f 575 589 607
f 557 590 589
f 558 576 590
f 576 591 608
f 559 592 591
f 560 593 592
f 577 609 593
f 594 609 577
f 562 595 594
f 563 596 595
f 564 597 596
f 565 598 597
f 566 599 598
f 567 600 599
f 568 587 600
f 575 607 578
f 578 610 586
f 580 611 579
f 581 612 580
f 582 613 581
f 601 614 582
f 554 601 548
f 585 583 615
f 583 602 615
f 616 602 571
f 571 603 616
f 617 603 584
f 584 585 615
f 586 618 601
f 587 604 619
f 573 605 604
f 574 606 605
f 588 620 606
f 579 611 588
f 589 621 607
f 590 622 589
f 576 608 590
f 591 623 608
f 592 623 591
f 593 623 592
f 609 623 593
f 594 624 609
f 595 624 594
f 596 625 595
f 597 626 596
f 598 627 597
f 599 628 598
f 600 629 599
f 587 619 600
f 578 607 610
f 586 610 618
f 580 612 611
f 581 613 612
f 582 614 613
f 601 618 614
f 615 602 630
f 602 616 630
f 631 616 603
f 631 603 617
f 617 584 630
f 615 630 584
f 604 623 619
f 605 623 604
f 606 623 605
f 620 623 606
f 611 620 588
f 607 621 632
f 589 622 621
f 590 608 622
f 608 623 622
f 624 623 609
f 595 625 624
f 596 626 625
f 597 627 626
f 598 628 627
f 599 629 628
f 600 619 629
f 607 632 610
f 610 633 618
f 612 634 611
f 613 635 612
f 614 636 613
f 618 637 614
f 630 616 638
f 616 631 639
f 640 631 617
f 630 640 617
f 619 623 629
f 634 623 620
f 611 634 620
f 621 623 632
f 622 623 621
f 625 623 624
f 626 623 625
f 627 623 626
f 628 623 627
f 629 623 628
f 610 632 633
f 618 633 637
f 612 635 634
f 613 636 635
f 614 637 636
f 616 639 638
f 640 630 638
f 641 639 631
f 641 631 640
f 635 623 634
f 632 623 633
f 633 623 637
f 636 623 635
f 637 623 636
f 638 639 642
f 638 642 640
f 639 641 642
f 642 641 640
f 645 644 643
f 646 643 644
f 647 644 645
f 648 645 643
f 649 646 644
f 650 643 646
f 648 647 645
f 647 651 644
f 650 648 643
f 651 649 644
f 646 649 652
f 653 650 646
f 647 648 650
f 653 651 647
f 651 654 649
f 653 646 652
f 655 652 649
f 650 653 647
f 651 653 656
f 656 654 651
f 654 655 649
f 656 653 652
f 652 655 657
f 654 656 658
f 253 655 654
f 656 652 657
f 659 657 655
f 658 656 657
f 658 660 654
f 253 654 275
f 274 655 253
f 659 655 661
f 658 657 659
f 654 660 662
f 660 658 659
f 654 321 275
f 655 274 254
f 660 659 661
f 663 661 655
f 662 660 661
f 662 664 654
f 321 654 352
f 228 655 254
f 663 655 322
f 662 661 663
f 654 664 401
f 664 662 663
f 654 401 352
f 655 228 255
f 322 655 300
f 663 322 353
f 401 664 374
f 434 664 663
f 655 255 299
f 300 655 299
f 375 663 353
f 434 374 664
f 375 434 663