# manually by me
o Sphere
i 0
v 0 500 0
v 0 -500 0
v 99 -490 0
v 97 -490 19
v 91 -490 37
v 82 -490 55
v 70 -490 70
v 55 -490 82
v 37 -490 91
v 19 -490 97
v 0 -490 99
v -19 -490 97
v -37 -490 91
v -55 -490 82
v -70 -490 70
v -82 -490 55
v -91 -490 37
v -97 -490 19
v -99 -490 0
v -97 -490 -19
v -91 -490 -37
v -82 -490 -55
v -70 -490 -70
v -55 -490 -82
v -37 -490 -91
v -19 -490 -97
v 0 -490 -99
v 19 -490 -97
v 37 -490 -91
v 55 -490 -82
v 70 -490 -70
v 82 -490 -55
v 91 -490 -37
v 97 -490 -19
v 193 -461 0
v 189 -461 37
v 178 -461 73
v 160 -461 107
v 136 -461 136
v 107 -461 160
v 73 -461 178
v 37 -461 189
v 0 -461 193
v -37 -461 189
v -73 -461 178
v -107 -461 160
v -136 -461 136
v -160 -461 107
v -178 -461 73
v -189 -461 37
v -193 -461 0
v -189 -461 -37
v -178 -461 -73
v -160 -461 -107
v -136 -461 -136
v -107 -461 -160
v -73 -461 -178
v -37 -461 -189
v 0 -461 -193
v 37 -461 -189
v 73 -461 -178
v 107 -461 -160
v 136 -461 -136
v 160 -461 -107
v 178 -461 -73
v 189 -461 -37
v 278 -415 0
v 272 -415 54
v 256 -415 106
v 231 -415 154
v 196 -415 196
v 154 -415 231
v 106 -415 256
v 54 -415 272
v 0 -415 278
v -54 -415 272
v -106 -415 256
v -154 -415 231
v -196 -415 196
v -231 -415 154
v -256 -415 106
v -272 -415 54
v -278 -415 0
v -272 -415 -54
v -256 -415 -106
v -231 -415 -154
v -196 -415 -196
v -154 -415 -231
v -106 -415 -256
v -54 -415 -272
v 0 -415 -278
v 54 -415 -272
v 106 -415 -256
v 154 -415 -231
v 196 -415 -196
v 231 -415 -154
v 256 -415 -106
v 272 -415 -54
v 354 -353 0
v 347 -353 69
v 327 -353 135
v 294 -353 196
v 250 -353 250
v 196 -353 294
v 135 -353 327
v 69 -353 347
v 0 -353 354
v -69 -353 347
v -135 -353 327
v -196 -353 294
v -250 -353 250
v -294 -353 196
v -327 -353 135
v -347 -353 69
v -354 -353 0
v -347 -353 -69
v -327 -353 -135
v -294 -353 -196
v -250 -353 -250
v -196 -353 -294
v -135 -353 -327
v -69 -353 -347
v 0 -353 -354
v 69 -353 -347
v 135 -353 -327
v 196 -353 -294
v 250 -353 -250
v 294 -353 -196
v 327 -353 -135
v 347 -353 -69
v 416 -277 0
v 408 -277 81
v 384 -277 159
v 345 -277 231
v 294 -277 294
v 231 -277 345
v 159 -277 384
v 81 -277 408
v 0 -277 416
v -81 -277 408
v -159 -277 384
v -231 -277 345
v -294 -277 294
v -345 -277 231
v -384 -277 159
v -408 -277 81
v -416 -277 0
v -408 -277 -81
v -384 -277 -159
v -345 -277 -231
v -294 -277 -294
v -231 -277 -345
v -159 -277 -384
v -81 -277 -408
v 0 -277 -416
v 81 -277 -408
v 159 -277 -384
v 231 -277 -345
v 294 -277 -294
v 345 -277 -231
v 384 -277 -159
v 408 -277 -81
v 462 -191 0
v 453 -191 90
v 426 -191 176
v 384 -191 256
v 326 -191 326
v 256 -191 384
v 176 -191 426
v 90 -191 453
v 0 -191 462
v -90 -191 453
v -176 -191 426
v -256 -191 384
v -326 -191 326
v -384 -191 256
v -426 -191 176
v -453 -191 90
v -462 -191 0
v -453 -191 -90
v -426 -191 -176
v -384 -191 -256
v -326 -191 -326
v -256 -191 -384
v -176 -191 -426
v -90 -191 -453
v 0 -191 -462
v 90 -191 -453
v 176 -191 -426
v 256 -191 -384
v 326 -191 -326
v 384 -191 -256
v 426 -191 -176
v 453 -191 -90
v 490 -97 0
v 480 -97 95
v 452 -97 187
v 407 -97 272
v 346 -97 346
v 272 -97 407
v 187 -97 452
v 95 -97 480
v 0 -97 490
v -95 -97 480
v -187 -97 452
v -272 -97 407
v -346 -97 346
v -407 -97 272
v -452 -97 187
v -480 -97 95
v -490 -97 0
v -480 -97 -95
v -452 -97 -187
v -407 -97 -272
v -346 -97 -346
v -272 -97 -407
v -187 -97 -452
v -95 -97 -480
v 0 -97 -490
v 95 -97 -480
v 187 -97 -452
v 272 -97 -407
v 346 -97 -346
v 407 -97 -272
v 452 -97 -187
v 480 -97 -95
v 500 0 0
v 490 0 97
v 461 0 191
v 415 0 277
v 353 0 353
v 277 0 415
v 191 0 461
v 97 0 490
v 0 0 500
v -97 0 490
v -191 0 461
v -277 0 415
v -353 0 353
v -415 0 277
v -461 0 191
v -490 0 97
v -500 0 0
v -490 0 -97
v -461 0 -191
v -415 0 -277
v -353 0 -353
v -277 0 -415
v -191 0 -461
v -97 0 -490
v 0 0 -500
v 97 0 -490
v 191 0 -461
v 277 0 -415
v 353 0 -353
v 415 0 -277
v 461 0 -191
v 490 0 -97
v 490 97 0
v 480 97 95
v 452 97 187
v 407 97 272
v 346 97 346
v 272 97 407
v 187 97 452
v 95 97 480
v 0 97 490
v -95 97 480
v -187 97 452
v -272 97 407
v -346 97 346
v -407 97 272
v -452 97 187
v -480 97 95
v -490 97 0
v -480 97 -95
v -452 97 -187
v -407 97 -272
v -346 97 -346
v -272 97 -407
v -187 97 -452
v -95 97 -480
v 0 97 -490
v 95 97 -480
v 187 97 -452
v 272 97 -407
v 346 97 -346
v 407 97 -272
v 452 97 -187
v 480 97 -95
v 462 191 0
v 453 191 90
v 426 191 176
v 384 191 256
v 326 191 326
v 256 191 384
v 176 191 426
v 90 191 453
v 0 191 462
v -90 191 453
v -176 191 426
v -256 191 384
v -326 191 326
v -384 191 256
v -426 191 176
v -453 191 90
v -462 191 0
v -453 191 -90
v -426 191 -176
v -384 191 -256
v -326 191 -326
v -256 191 -384
v -176 191 -426
v -90 191 -453
v 0 191 -462
v 90 191 -453
v 176 191 -426
v 256 191 -384
v 326 191 -326
v 384 191 -256
v 426 191 -176
v 453 191 -90
v 416 277 0
v 408 277 81
v 384 277 159
v 345 277 231
v 294 277 294
v 231 277 345
v 159 277 384
v 81 277 408
v 0 277 416
v -81 277 408
v -159 277 384
v -231 277 345
v -294 277 294
v -345 277 231
v -384 277 159
v -408 277 81
v -416 277 0
v -408 277 -81
v -384 277 -159
v -345 277 -231
v -294 277 -294
v -231 277 -345
v -159 277 -384
v -81 277 -408
v 0 277 -416
v 81 277 -408
v 159 277 -384
v 231 277 -345
v 294 277 -294
v 345 277 -231
v 384 277 -159
v 408 277 -81
v 354 353 0
v 347 353 69
v 327 353 135
v 294 353 196
v 250 353 250
v 196 353 294
v 135 353 327
v 69 353 347
v 0 353 354
v -69 353 347
v -135 353 327
v -196 353 294
v -250 353 250
v -294 353 196
v -327 353 135
v -347 353 69
v -354 353 0
v -347 353 -69
v -327 353 -135
v -294 353 -196
v -250 353 -250
v -196 353 -294
v -135 353 -327
v -69 353 -347
v 0 353 -354
v 69 353 -347
v 135 353 -327
v 196 353 -294
v 250 353 -250
v 294 353 -196
v 327 353 -135
v 347 353 -69
v 278 415 0
v 272 415 54
v 256 415 106
v 231 415 154
v 196 415 196
v 154 415 231
v 106 415 256
v 54 415 272
v 0 415 278
v -54 415 272
v -106 415 256
v -154 415 231
v -196 415 196
v -231 415 154
v -256 415 106
v -272 415 54
v -278 415 0
v -272 415 -54
v -256 415 -106
v -231 415 -154
v -196 415 -196
v -154 415 -231
v -106 415 -256
v -54 415 -272
v 0 415 -278
v 54 415 -272
v 106 415 -256
v 154 415 -231
v 196 415 -196
v 231 415 -154
v 256 415 -106
v 272 415 -54
v 193 461 0
v 189 461 37
v 178 461 73
v 160 461 107
v 136 461 136
v 107 461 160
v 73 461 178
v 37 461 189
v 0 461 193
v -37 461 189
v -73 461 178
v -107 461 160
v -136 461 136
v -160 461 107
v -178 461 73
v -189 461 37
v -193 461 0
v -189 461 -37
v -178 461 -73
v -160 461 -107
v -136 461 -136
v -107 461 -160
v -73 461 -178
v -37 461 -189
v 0 461 -193
v 37 461 -189
v 73 461 -178
v 107 461 -160
v 136 461 -136
v 160 461 -107
v 178 461 -73
v 189 461 -37
v 99 490 0
v 97 490 19
v 91 490 37
v 82 490 55
v 70 490 70
v 55 490 82
v 37 490 91
v 19 490 97
v 0 490 99
v -19 490 97
v -37 490 91
v -55 490 82
v -70 490 70
v -82 490 55
v -91 490 37
v -97 490 19
v -99 490 0
v -97 490 -19
v -91 490 -37
v -82 490 -55
v -70 490 -70
v -55 490 -82
v -37 490 -91
v -19 490 -97
v 0 490 -99
v 19 490 -97
v 37 490 -91
v 55 490 -82
v 70 490 -70
v 82 490 -55
v 91 490 -37
v 97 490 -19

f 1 2 3
f 1 3 4
f 1 4 5
f 1 5 6
f 1 6 7
f 1 7 8
f 1 8 9
f 1 9 10
f 1 10 11
f 1 11 12
f 1 12 13
f 1 13 14
f 1 14 15
f 1 15 16
f 1 16 17
f 1 17 18
f 1 18 19
f 1 19 20
f 1 20 21
f 1 21 22
f 1 22 23
f 1 23 24
f 1 24 25
f 1 25 26
f 1 26 27
f 1 27 28
f 1 28 29
f 1 29 30
f 1 30 31
f 1 31 32
f 1 32 33
f 1 33 2
f 450 0 451
f 451 0 452
f 452 0 453
f 453 0 454
f 454 0 455
f 455 0 456
f 456 0 457
f 457 0 458
f 458 0 459
f 459 0 460
f 460 0 461
f 461 0 462
f 462 0 463
f 463 0 464
f 464 0 465
f 465 0 466
f 466 0 467
f 467 0 468
f 468 0 469
f 469 0 470
f 470 0 471
f 471 0 472
f 472 0 473
f 473 0 474
f 474 0 475
f 475 0 476
f 476 0 477
f 477 0 478
f 478 0 479
f 479 0 480
f 480 0 481
f 481 0 450
f 3 2 34
f 3 34 35
f 4 3 35
f 4 35 36
f 5 4 36
f 5 36 37
f 6 5 37
f 6 37 38
f 7 6 38
f 7 38 39
f 8 7 39
f 8 39 40
f 9 8 40
f 9 40 41
f 10 9 41
f 10 41 42
f 11 10 42
f 11 42 43
f 12 11 43
f 12 43 44
f 13 12 44
f 13 44 45
f 14 13 45
f 14 45 46
f 15 14 46
f 15 46 47
f 16 15 47
f 16 47 48
f 17 16 48
f 17 48 49
f 18 17 49
f 18 49 50
f 19 18 50
f 19 50 51
f 20 19 51
f 20 51 52
f 21 20 52
f 21 52 53
f 22 21 53
f 22 53 54
f 23 22 54
f 23 54 55
f 24 23 55
f 24 55 56
f 25 24 56
f 25 56 57
f 26 25 57
f 26 57 58
f 27 26 58
f 27 58 59
f 28 27 59
f 28 59 60
f 29 28 60
f 29 60 61
f 30 29 61
f 30 61 62
f 31 30 62
f 31 62 63
f 32 31 63
f 32 63 64
f 33 32 64
f 33 64 65
f 2 33 65
f 2 65 34
f 35 34 66
f 35 66 67
f 36 35 67
f 36 67 68
f 37 36 68
f 37 68 69
f 38 37 69
f 38 69 70
f 39 38 70
f 39 70 71
f 40 39 71
f 40 71 72
f 41 40 72
f 41 72 73
f 42 41 73
f 42 73 74
f 43 42 74
f 43 74 75
f 44 43 75
f 44 75 76
f 45 44 76
f 45 76 77
f 46 45 77
f 46 77 78
f 47 46 78
f 47 78 79
f 48 47 79
f 48 79 80
f 49 48 80
f 49 80 81
f 50 49 81
f 50 81 82
f 51 50 82
f 51 82 83
f 52 51 83
f 52 83 84
f 53 52 84
f 53 84 85
f 54 53 85
f 54 85 86
f 55 54 86
f 55 86 87
f 56 55 87
f 56 87 88
f 57 56 88
f 57 88 89
f 58 57 89
f 58 89 90
f 59 58 90
f 59 90 91
f 60 59 91
f 60 91 92
f 61 60 92
f 61 92 93
f 62 61 93
f 62 93 94
f 63 62 94
f 63 94 95
f 64 63 95
f 64 95 96
f 65 64 96
f 65 96 97
f 34 65 97
f 34 97 66
f 67 66 98
f 67 98 99
f 68 67 99
f 68 99 100
f 69 68 100
f 69 100 101
f 70 69 101
f 70 101 102
f 71 70 102
f 71 102 103
f 72 71 103
f 72 103 104
f 73 72 104
f 73 104 105
f 74 73 105
f 74 105 106
f 75 74 106
f 75 106 107
f 76 75 107
f 76 107 108
f 77 76 108
f 77 108 109
f 78 77 109
f 78 109 110
f 79 78 110
f 79 110 111
f 80 79 111
f 80 111 112
f 81 80 112
f 81 112 113
f 82 81 113
f 82 113 114
f 83 82 114
f 83 114 115
f 84 83 115
f 84 115 116
f 85 84 116
f 85 116 117
f 86 85 117
f 86 117 118
f 87 86 118
f 87 118 119
f 88 87 119
f 88 119 120
f 89 88 120
f 89 120 121
f 90 89 121
f 90 121 122
f 91 90 122
f 91 122 123
f 92 91 123
f 92 123 124
f 93 92 124
f 93 124 125
f 94 93 125
f 94 125 126
f 95 94 126
f 95 126 127
f 96 95 127
f 96 127 128
f 97 96 128
f 97 128 129
f 66 97 129
f 66 129 98
f 99 98 130
f 99 130 131
f 100 99 131
f 100 131 132
f 101 100 132
f 101 132 133
f 102 101 133
f 102 133 134
f 103 102 134
f 103 134 135
f 104 103 135
f 104 135 136
f 105 104 136
f 105 136 137
f 106 105 137
f 106 137 138
f 107 106 138
f 107 138 139
f 108 107 139
f 108 139 140
f 109 108 140
f 109 140 141
f 110 109 141
f 110 141 142
f 111 110 142
f 111 142 143
f 112 111 143
f 112 143 144
f 113 112 144
f 113 144 145
f 114 113 145
f 114 145 146
f 115 114 146
f 115 146 147
f 116 115 147
f 116 147 148
f 117 116 148
f 117 148 149
f 118 117 149
f 118 149 150
f 119 118 150
f 119 150 151
f 120 119 151
f 120 151 152
f 121 120 152
f 121 152 153
f 122 121 153
f 122 153 154
f 123 122 154
f 123 154 155
f 124 123 155
f 124 155 156
f 125 124 156
f 125 156 157
f 126 125 157
f 126 157 158
f 127 126 158
f 127 158 159
f 128 127 159
f 128 159 160
f 129 128 160
f 129 160 161
f 98 129 161
f 98 161 130
f 131 130 162
f 131 162 163
f 132 131 163
f 132 163 164
f 133 132 164
f 133 164 165
f 134 133 165
f 134 165 166
f 135 134 166
f 135 166 167
f 136 135 167
f 136 167 168
f 137 136 168
f 137 168 169
f 138 137 169
f 138 169 170
f 139 138 170
f 139 170 171
f 140 139 171
f 140 171 172
f 141 140 172
f 141 172 173
f 142 141 173
f 142 173 174
f 143 142 174
f 143 174 175
f 144 143 175
f 144 175 176
f 145 144 176
f 145 176 177
f 146 145 177
f 146 177 178
f 147 146 178
f 147 178 179
f 148 147 179
f 148 179 180
f 149 148 180
f 149 180 181
f 150 149 181
f 150 181 182
f 151 150 182
f 151 182 183
f 152 151 183
f 152 183 184
f 153 152 184
f 153 184 185
f 154 153 185
f 154 185 186
f 155 154 186
f 155 186 187
f 156 155 187
f 156 187 188
f 157 156 188
f 157 188 189
f 158 157 189
f 158 189 190
f 159 158 190
f 159 190 191
f 160 159 191
f 160 191 192
f 161 160 192
f 161 192 193
f 130 161 193
f 130 193 162
f 163 162 194
f 163 194 195
f 164 163 195
f 164 195 196
f 165 164 196
f 165 196 197
f 166 165 197
f 166 197 198
f 167 166 198
f 167 198 199
f 168 167 199
f 168 199 200
f 169 168 200
f 169 200 201
f 170 169 201
f 170 201 202
f 171 170 202
f 171 202 203
f 172 171 203
f 172 203 204
f 173 172 204
f 173 204 205
f 174 173 205
f 174 205 206
f 175 174 206
f 175 206 207
f 176 175 207
f 176 207 208
f 177 176 208
f 177 208 209
f 178 177 209
f 178 209 210
f 179 178 210
f 179 210 211
f 180 179 211
f 180 211 212
f 181 180 212
f 181 212 213
f 182 181 213
f 182 213 214
f 183 182 214
f 183 214 215
f 184 183 215
f 184 215 216
f 185 184 216
f 185 216 217
f 186 185 217
f 186 217 218
f 187 186 218
f 187 218 219
f 188 187 219
f 188 219 220
f 189 188 220
f 189 220 221
f 190 189 221
f 190 221 222
f 191 190 222
f 191 222 223
f 192 191 223
f 192 223 224
f 193 192 224
f 193 224 225
f 162 193 225
f 162 225 194
f 195 194 226
f 195 226 227
f 196 195 227
f 196 227 228
f 197 196 228
f 197 228 229
f 198 197 229
f 198 229 230
f 199 198 230
f 199 230 231
f 200 199 231
f 200 231 232
f 201 200 232
f 201 232 233
f 202 201 233
f 202 233 234
f 203 202 234
f 203 234 235
f 204 203 235
f 204 235 236
f 205 204 236
f 205 236 237
f 206 205 237
f 206 237 238
f 207 206 238
f 207 238 239
f 208 207 239
f 208 239 240
f 209 208 240
f 209 240 241
f 210 209 241
f 210 241 242
f 211 210 242
f 211 242 243
f 212 211 243
f 212 243 244
f 213 212 244
f 213 244 245
f 214 213 245
f 214 245 246
f 215 214 246
f 215 246 247
f 216 215 247
f 216 247 248
f 217 216 248
f 217 248 249
f 218 217 249
f 218 249 250
f 219 218 250
f 219 250 251
f 220 219 251
f 220 251 252
f 221 220 252
f 221 252 253
f 222 221 253
f 222 253 254
f 223 222 254
f 223 254 255
f 224 223 255
f 224 255 256
f 225 224 256
f 225 256 257
f 194 225 257
f 194 257 226
f 227 226 258
f 227 258 259
f 228 227 259
f 228 259 260
f 229 228 260
f 229 260 261
f 230 229 261
f 230 261 262
f 231 230 262
f 231 262 263
f 232 231 263
f 232 263 264
f 233 232 264
f 233 264 265
f 234 233 265
f 234 265 266
f 235 234 266
f 235 266 267
f 236 235 267
f 236 267 268
f 237 236 268
f 237 268 269
f 238 237 269
f 238 269 270
f 239 238 270
f 239 270 271
f 240 239 271
f 240 271 272
f 241 240 272
f 241 272 273
f 242 241 273
f 242 273 274
f 243 242 274
f 243 274 275
f 244 243 275
f 244 275 276
f 245 244 276
f 245 276 277
f 246 245 277
f 246 277 278
f 247 246 278
f 247 278 279
f 248 247 279
f 248 279 280
f 249 248 280
f 249 280 281
f 250 249 281
f 250 281 282
f 251 250 282
f 251 282 283
f 252 251 283
f 252 283 284
f 253 252 284
f 253 284 285
f 254 253 285
f 254 285 286
f 255 254 286
f 255 286 287
f 256 255 287
f 256 287 288
f 257 256 288
f 257 288 289
f 226 257 289
f 226 289 258
f 259 258 290
f 259 290 291
f 260 259 291
f 260 291 292
f 261 260 292
f 261 292 293
f 262 261 293
f 262 293 294
f 263 262 294
f 263 294 295
f 264 263 295
f 264 295 296
f 265 264 296
f 265 296 297
f 266 265 297
f 266 297 298
f 267 266 298
f 267 298 299
f 268 267 299
f 268 299 300
f 269 268 300
f 269 300 301
f 270 269 301
f 270 301 302
f 271 270 302
f 271 302 303
f 272 271 303
f 272 303 304
f 273 272 304
f 273 304 305
f 274 273 305
f 274 305 306
f 275 274 306
f 275 306 307
f 276 275 307
f 276 307 308
f 277 276 308
f 277 308 309
f 278 277 309
f 278 309 310
f 279 278 310
f 279 310 311
f 280 279 311
f 280 311 312
f 281 280 312
f 281 312 313
f 282 281 313
f 282 313 314
f 283 282 314
f 283 314 315
f 284 283 315
f 284 315 316
f 285 284 316
f 285 316 317
f 286 285 317
f 286 317 318
f 287 286 318
f 287 318 319
f 288 287 319
f 288 319 320
f 289 288 320
f 289 320 321
f 258 289 321
f 258 321 290
f 291 290 322
f 291 322 323
f 292 291 323
f 292 323 324
f 293 292 324
f 293 324 325
f 294 293 325
f 294 325 326
f 295 294 326
f 295 326 327
f 296 295 327
f 296 327 328
f 297 296 328
f 297 328 329
f 298 297 329
f 298 329 330
f 299 298 330
f 299 330 331
f 300 299 331
f 300 331 332
f 301 300 332
f 301 332 333
f 302 301 333
f 302 333 334
f 303 302 334
f 303 334 335
f 304 303 335
f 304 335 336
f 305 304 336
f 305 336 337
f 306 305 337
f 306 337 338
f 307 306 338
f 307 338 339
f 308 307 339
f 308 339 340
f 309 308 340
f 309 340 341
f 310 309 341
f 310 341 342
f 311 310 342
f 311 342 343
f 312 311 343
f 312 343 344
f 313 312 344
f 313 344 345
f 314 313 345
f 314 345 346
f 315 314 346
f 315 346 347
f 316 315 347
f 316 347 348
f 317 316 348
f 317 348 349
f 318 317 349
f 318 349 350
f 319 318 350
f 319 350 351
f 320 319 351
f 320 351 352
f 321 320 352
f 321 352 353
f 290 321 353
f 290 353 322
f 323 322 354
f 323 354 355
f 324 323 355
f 324 355 356
f 325 324 356
f 325 356 357
f 326 325 357
f 326 357 358
f 327 326 358
f 327 358 359
f 328 327 359
f 328 359 360
f 329 328 360
f 329 360 361
f 330 329 361
f 330 361 362
f 331 330 362
f 331 362 363
f 332 331 363
f 332 363 364
f 333 332 364
f 333 364 365
f 334 333 365
f 334 365 366
f 335 334 366
f 335 366 367
f 336 335 367
f 336 367 368
f 337 336 368
f 337 368 369
f 338 337 369
f 338 369 370
f 339 338 370
f 339 370 371
f 340 339 371
f 340 371 372
f 341 340 372
f 341 372 373
f 342 341 373
f 342 373 374
f 343 342 374
f 343 374 375
f 344 343 375
f 344 375 376
f 345 344 376
f 345 376 377
f 346 345 377
f 346 377 378
f 347 346 378
f 347 378 379
f 348 347 379
f 348 379 380
f 349 348 380
f 349 380 381
f 350 349 381
f 350 381 382
f 351 350 382
f 351 382 383
f 352 351 383
f 352 383 384
f 353 352 384
f 353 384 385
f 322 353 385
f 322 385 354
f 355 354 386
f 355 386 387
f 356 355 387
f 356 387 388
f 357 356 388
f 357 388 389
f 358 357 389
f 358 389 390
f 359 358 390
f 359 390 391
f 360 359 391
f 360 391 392
f 361 360 392
f 361 392 393
f 362 361 393
f 362 393 394
f 363 362 394
f 363 394 395
f 364 363 395
f 364 395 396
f 365 364 396
f 365 396 397
f 366 365 397
f 366 397 398
f 367 366 398
f 367 398 399
f 368 367 399
f 368 399 400
f 369 368 400
f 369 400 401
f 370 369 401
f 370 401 402
f 371 370 402
f 371 402 403
f 372 371 403
f 372 403 404
f 373 372 404
f 373 404 405
f 374 373 405
f 374 405 406
f 375 374 406
f 375 406 407
f 376 375 407
f 376 407 408
f 377 376 408
f 377 408 409
f 378 377 409
f 378 409 410
f 379 378 410
f 379 410 411
f 380 379 411
f 380 411 412
f 381 380 412
f 381 412 413
f 382 381 413
f 382 413 414
f 383 382 414
f 383 414 415
f 384 383 415
f 384 415 416
f 385 384 416
f 385 416 417
f 354 385 417
f 354 417 386
f 387 386 418
f 387 418 419
f 388 387 419
f 388 419 420
f 389 388 420
f 389 420 421
f 390 389 421
f 390 421 422
f 391 390 422
f 391 422 423
f 392 391 423
f 392 423 424
f 393 392 424
f 393 424 425
f 394 393 425
f 394 425 426
f 395 394 426
f 395 426 427
f 396 395 427
f 396 427 428
f 397 396 428
f 397 428 429
f 398 397 429
f 398 429 430
f 399 398 430
f 399 430 431
f 400 399 431
f 400 431 432
f 401 400 432
f 401 432 433
f 402 401 433
f 402 433 434
f 403 402 434
f 403 434 435
f 404 403 435
f 404 435 436
f 405 404 436
f 405 436 437
f 406 405 437
f 406 437 438
f 407 406 438
f 407 438 439
f 408 407 439
f 408 439 440
f 409 408 440
f 409 440 441
f 410 409 441
f 410 441 442
f 411 410 442
f 411 442 443
f 412 411 443
f 412 443 444
f 413 412 444
f 413 444 445
f 414 413 445
f 414 445 446
f 415 414 446
f 415 446 447
f 416 415 447
f 416 447 448
f 417 416 448
f 417 448 449
f 386 417 449
f 386 449 418
f 419 418 450
f 419 450 451
f 420 419 451
f 420 451 452
f 421 420 452
f 421 452 453
f 422 421 453
f 422 453 454
f 423 422 454
f 423 454 455
f 424 423 455
f 424 455 456
f 425 424 456
f 425 456 457
f 426 425 457
f 426 457 458
f 427 426 458
f 427 458 459
f 428 427 459
f 428 459 460
f 429 428 460
f 429 460 461
f 430 429 461
f 430 461 462
f 431 430 462
f 431 462 463
f 432 431 463
f 432 463 464
f 433 432 464
f 433 464 465
f 434 433 465
f 434 465 466
f 435 434 466
f 435 466 467
f 436 435 467
f 436 467 468
f 437 436 468
f 437 468 469
f 438 437 469
f 438 469 470
f 439 438 470
f 439 470 471
f 440 439 471
f 440 471 472
f 441 440 472
f 441 472 473
f 442 441 473
f 442 473 474
f 443 442 474
f 443 474 475
f 444 443 475
f 444 475 476
f 445 444 476
f 445 476 477
f 446 445 477
f 446 477 478
f 447 446 478
f 447 478 479
f 448 447 479
f 448 479 480
f 449 448 480
f 449 480 481
f 418 449 481
f 418 481 450