# manually converted
# by me
o Sphere
i 0
v 0 500 0
v 0 -500 0
v 193 -461 0
v 178 -461 73
v 136 -461 136
v 73 -461 178
v 0 -461 193
v -73 -461 178
v -136 -461 136
v -178 -461 73
v -193 -461 0
v -178 -461 -73
v -136 -461 -136
v -73 -461 -178
v 0 -461 -193
v 73 -461 -178
v 136 -461 -136
v 178 -461 -73
v 354 -353 0
v 327 -353 135
v 250 -353 250
v 135 -353 327
v 0 -353 354
v -135 -353 327
v -250 -353 250
v -327 -353 135
v -354 -353 0
v -327 -353 -135
v -250 -353 -250
v -135 -353 -327
v 0 -353 -354
v 135 -353 -327
v 250 -353 -250
v 327 -353 -135
v 462 -191 0
v 426 -191 176
v 326 -191 326
v 176 -191 426
v 0 -191 462
v -176 -191 426
v -326 -191 326
v -426 -191 176
v -462 -191 0
v -426 -191 -176
v -326 -191 -326
v -176 -191 -426
v 0 -191 -462
v 176 -191 -426
v 326 -191 -326
v 426 -191 -176
v 500 0 0
v 461 0 191
v 353 0 353
v 191 0 461
v 0 0 500
v -191 0 461
v -353 0 353
v -461 0 191
v -500 0 0
v -461 0 -191
v -353 0 -353
v -191 0 -461
v 0 0 -500
v 191 0 -461
v 353 0 -353
v 461 0 -191
v 462 191 0
v 426 191 176
v 326 191 326
v 176 191 426
v 0 191 462
v -176 191 426
v -326 191 326
v -426 191 176
v -462 191 0
v -426 191 -176
v -326 191 -326
v -176 191 -426
v 0 191 -462
v 176 191 -426
v 326 191 -326
v 426 191 -176
v 354 353 0
v 327 353 135
v 250 353 250
v 135 353 327
v 0 353 354
v -135 353 327
v -250 353 250
v -327 353 135
v -354 353 0
v -327 353 -135
v -250 353 -250
v -135 353 -327
v 0 353 -354
v 135 353 -327
v 250 353 -250
v 327 353 -135
v 193 461 0
v 178 461 73
v 136 461 136
v 73 461 178
v 0 461 193
v -73 461 178
v -136 461 136
v -178 461 73
v -193 461 0
v -178 461 -73
v -136 461 -136
v -73 461 -178
v 0 461 -193
v 73 461 -178
v 136 461 -136
v 178 461 -73

f 1 2 3
f 1 3 4
f 1 4 5
f 1 5 6
f 1 6 7
f 1 7 8
f 1 8 9
f 1 9 10
f 1 10 11
f 1 11 12
f 1 12 13
f 1 13 14
f 1 14 15
f 1 15 16
f 1 16 17
f 1 17 2
f 98 0 99
f 99 0 100
f 100 0 101
f 101 0 102
f 102 0 103
f 103 0 104
f 104 0 105
f 105 0 106
f 106 0 107
f 107 0 108
f 108 0 109
f 109 0 110
f 110 0 111
f 111 0 112
f 112 0 113
f 113 0 98
f 3 2 18
f 3 18 19
f 4 3 19
f 4 19 20
f 5 4 20
f 5 20 21
f 6 5 21
f 6 21 22
f 7 6 22
f 7 22 23
f 8 7 23
f 8 23 24
f 9 8 24
f 9 24 25
f 10 9 25
f 10 25 26
f 11 10 26
f 11 26 27
f 12 11 27
f 12 27 28
f 13 12 28
f 13 28 29
f 14 13 29
f 14 29 30
f 15 14 30
f 15 30 31
f 16 15 31
f 16 31 32
f 17 16 32
f 17 32 33
f 2 17 33
f 2 33 18
f 19 18 34
f 19 34 35
f 20 19 35
f 20 35 36
f 21 20 36
f 21 36 37
f 22 21 37
f 22 37 38
f 23 22 38
f 23 38 39
f 24 23 39
f 24 39 40
f 25 24 40
f 25 40 41
f 26 25 41
f 26 41 42
f 27 26 42
f 27 42 43
f 28 27 43
f 28 43 44
f 29 28 44
f 29 44 45
f 30 29 45
f 30 45 46
f 31 30 46
f 31 46 47
f 32 31 47
f 32 47 48
f 33 32 48
f 33 48 49
f 18 33 49
f 18 49 34
f 35 34 50
f 35 50 51
f 36 35 51
f 36 51 52
f 37 36 52
f 37 52 53
f 38 37 53
f 38 53 54
f 39 38 54
f 39 54 55
f 40 39 55
f 40 55 56
f 41 40 56
f 41 56 57
f 42 41 57
f 42 57 58
f 43 42 58
f 43 58 59
f 44 43 59
f 44 59 60
f 45 44 60
f 45 60 61
f 46 45 61
f 46 61 62
f 47 46 62
f 47 62 63
f 48 47 63
f 48 63 64
f 49 48 64
f 49 64 65
f 34 49 65
f 34 65 50
f 51 50 66
f 51 66 67
f 52 51 67
f 52 67 68
f 53 52 68
f 53 68 69
f 54 53 69
f 54 69 70
f 55 54 70
f 55 70 71
f 56 55 71
f 56 71 72
f 57 56 72
f 57 72 73
f 58 57 73
f 58 73 74
f 59 58 74
f 59 74 75
f 60 59 75
f 60 75 76
f 61 60 76
f 61 76 77
f 62 61 77
f 62 77 78
f 63 62 78
f 63 78 79
f 64 63 79
f 64 79 80
f 65 64 80
f 65 80 81
f 50 65 81
f 50 81 66
f 67 66 82
f 67 82 83
f 68 67 83
f 68 83 84
f 69 68 84
f 69 84 85
f 70 69 85
f 70 85 86
f 71 70 86
f 71 86 87
f 72 71 87
f 72 87 88
f 73 72 88
f 73 88 89
f 74 73 89
f 74 89 90
f 75 74 90
f 75 90 91
f 76 75 91
f 76 91 92
f 77 76 92
f 77 92 93
f 78 77 93
f 78 93 94
f 79 78 94
f 79 94 95
f 80 79 95
f 80 95 96
f 81 80 96
f 81 96 97
f 66 81 97
f 66 97 82
f 83 82 98
f 83 98 99
f 84 83 99
f 84 99 100
f 85 84 100
f 85 100 101
f 86 85 101
f 86 101 102
f 87 86 102
f 87 102 103
f 88 87 103
f 88 103 104
f 89 88 104
f 89 104 105
f 90 89 105
f 90 105 106
f 91 90 106
f 91 106 107
f 92 91 107
f 92 107 108
f 93 92 108
f 93 108 109
f 94 93 109
f 94 109 110
f 95 94 110
f 95 110 111
f 96 95 111
f 96 111 112
f 97 96 112
f 97 112 113
f 82 97 113
f 82 113 98
